<?xml version="1.0" encoding="UTF-8" standalone="no"?>
<!-- Created with Inkscape (http://www.inkscape.org/) -->

<svg
   xmlns:dc="http://purl.org/dc/elements/1.1/"
   xmlns:cc="http://creativecommons.org/ns#"
   xmlns:rdf="http://www.w3.org/1999/02/22-rdf-syntax-ns#"
   xmlns:svg="http://www.w3.org/2000/svg"
   xmlns="http://www.w3.org/2000/svg"
   xmlns:sodipodi="http://sodipodi.sourceforge.net/DTD/sodipodi-0.dtd"
   xmlns:inkscape="http://www.inkscape.org/namespaces/inkscape"
   width="32"
   height="32"
   viewBox="0 0 8.4666667 8.4666667"
   version="1.1"
   id="svg8"
   inkscape:version="0.92.1 r"
   sodipodi:docname="icon.svg">
  <defs
     id="defs2" />
  <sodipodi:namedview
     id="base"
     pagecolor="#ffffff"
     bordercolor="#666666"
     borderopacity="1.0"
     inkscape:pageopacity="0.0"
     inkscape:pageshadow="2"
     inkscape:zoom="22.4"
     inkscape:cx="27.868203"
     inkscape:cy="14.184853"
     inkscape:document-units="mm"
     inkscape:current-layer="layer2"
     showgrid="true"
     units="px"
     inkscape:showpageshadow="false"
     inkscape:snap-grids="true"
     borderlayer="true"
     inkscape:snap-to-guides="false"
     inkscape:pagecheckerboard="true"
     inkscape:window-width="1920"
     inkscape:window-height="1139"
     inkscape:window-x="0"
     inkscape:window-y="0"
     inkscape:window-maximized="1">
    <inkscape:grid
       type="xygrid"
       id="grid3680"
       spacingx="0.52916667"
       spacingy="0.52916667"
       dotted="false"
       empspacing="0" />
  </sodipodi:namedview>
  <metadata
     id="metadata5">
    <rdf:RDF>
      <cc:Work
         rdf:about="">
        <dc:format>image/svg+xml</dc:format>
        <dc:type
           rdf:resource="http://purl.org/dc/dcmitype/StillImage" />
        <dc:title></dc:title>
      </cc:Work>
    </rdf:RDF>
  </metadata>
  <g
     inkscape:groupmode="layer"
     id="layer2"
     inkscape:label="layer1">
    <path
       id="path4534"
       style="fill:#040000;fill-opacity:1;fill-rule:evenodd;stroke:none;stroke-width:0.26458332px;stroke-linecap:butt;stroke-linejoin:miter;stroke-opacity:1"
       d="M 8.4666666,-5.3333334e-8 V 8.4666666 L 7.9375,8.4666667 V 7.9375 c 0,0 -0.3780499,-0.014396 -0.767838,-0.5577364 L 4.4291869,3.2814535 6.626469,1.0960572 c 0,0 0.4865706,-0.56689048 1.311031,-0.56689048 V 5.3333336e-8 Z M 0,8.4666666 V -5.3333334e-8 L 0.52916667,0 v 0.52916672 c 0,0 0.52916663,-3e-8 0.52916663,0.52916668 v 6.3499999 c 0,0 0,0.5291667 -0.52916663,0.5291667 v 0.5291667 z m 2.6458334,10e-8 V 7.9375 c 0,0 -0.5291667,0 -0.5291667,-0.5291667 V 5.2916667 L 3.6261353,3.9310262 5.9060996,7.3447714 c 0,0 0.4013779,0.5809168 -0.6144329,0.5927286 V 8.4666667 Z M 5.2916667,5.3333336e-8 V 0.52916672 C 5.9098154,0.54412838 5.1381136,1.270945 5.1381136,1.270945 L 2.1284785,4.0207218 2.1166667,1.0583334 c 0,0 10e-8,-0.52916668 0.5291667,-0.52916668 V 5.3333336e-8 Z"
       inkscape:connector-curvature="0"
       inkscape:label="k inverted" />
    <path
       style="display:none;fill:#020202;fill-opacity:1;fill-rule:evenodd;stroke:none;stroke-width:0.26458332;stroke-linecap:butt;stroke-linejoin:miter;stroke-miterlimit:4;stroke-dasharray:none;stroke-opacity:1"
       d="m 0.52916667,0 v 0.52916672 c 0,0 0.52916663,-3e-8 0.52916663,0.52916668 v 6.3499999 c 0,0 0,0.5291667 -0.52916663,0.5291667 V 8.4666667 H 2.6458334 V 7.9375 c 0,0 -0.5291667,0 -0.5291667,-0.5291667 V 5.2916667 L 3.6261353,3.9310262 5.9060996,7.3447714 c 0,0 0.4013779,0.5809168 -0.6144329,0.5927286 V 8.4666667 H 7.9375 V 7.9375 c 0,0 -0.3780499,-0.014396 -0.767838,-0.5577364 L 4.4291869,3.2814535 6.626469,1.0960572 c 0,0 0.4865706,-0.56689048 1.311031,-0.56689048 V 5.3333335e-8 H 5.2916667 V 0.52916672 C 5.9098154,0.54412838 5.1381136,1.270945 5.1381136,1.270945 L 2.1284785,4.0207218 2.1166667,1.0583334 c 0,0 10e-8,-0.52916668 0.5291667,-0.52916668 V 5.3333335e-8 Z"
       id="path4499-5"
       inkscape:connector-curvature="0"
       sodipodi:nodetypes="ccccccccccccccccccccccccccccc"
       inkscape:label="k" />
  </g>
</svg>
