<?xml version="1.0" encoding="UTF-8" standalone="no"?>
<!-- Created with Inkscape (http://www.inkscape.org/) -->

<svg
   xmlns:dc="http://purl.org/dc/elements/1.1/"
   xmlns:cc="http://creativecommons.org/ns#"
   xmlns:rdf="http://www.w3.org/1999/02/22-rdf-syntax-ns#"
   xmlns:svg="http://www.w3.org/2000/svg"
   xmlns="http://www.w3.org/2000/svg"
   xmlns:xlink="http://www.w3.org/1999/xlink"
   xmlns:sodipodi="http://sodipodi.sourceforge.net/DTD/sodipodi-0.dtd"
   xmlns:inkscape="http://www.inkscape.org/namespaces/inkscape"
   width="32"
   height="32"
   viewBox="0 0 8.4666667 8.4666667"
   version="1.1"
   id="svg8"
   inkscape:version="0.92+devel (474fa8bbdb, 2017-11-10, custom)"
   sodipodi:docname="icon2.svg"
   inkscape:export-filename="/home/henry/Projects/konstrukt/icon2.png"
   inkscape:export-xdpi="3072"
   inkscape:export-ydpi="3072">
  <defs
     id="defs2">
    <linearGradient
       inkscape:collect="always"
       id="linearGradient834">
      <stop
         style="stop-color:#3d3841;stop-opacity:1"
         offset="0"
         id="stop830" />
      <stop
         style="stop-color:#160a1e;stop-opacity:1"
         offset="1"
         id="stop832" />
    </linearGradient>
    <pattern
       inkscape:collect="always"
       xlink:href="#Strips1_5white"
       id="pattern2548"
       patternTransform="matrix(0.04855362,0.02290477,-1.4327095,3.0370624,0,0)" />
    <pattern
       inkscape:stockid="Stripes 1:5 white"
       id="Strips1_5white"
       patternTransform="translate(0,0) scale(10,10)"
       height="1"
       width="6"
       patternUnits="userSpaceOnUse"
       inkscape:collect="always">
      <rect
         id="rect1801"
         height="2"
         width="1"
         y="-0.5"
         x="0"
         style="fill:white;stroke:none" />
    </pattern>
    <radialGradient
       inkscape:collect="always"
       xlink:href="#linearGradient834"
       id="radialGradient836"
       cx="4.2333333"
       cy="4.2333333"
       fx="4.2333333"
       fy="4.2333333"
       r="6.3499999"
       gradientUnits="userSpaceOnUse" />
  </defs>
  <sodipodi:namedview
     id="base"
     pagecolor="#ffffff"
     bordercolor="#666666"
     borderopacity="1.0"
     inkscape:pageopacity="0.0"
     inkscape:pageshadow="2"
     inkscape:zoom="13.962879"
     inkscape:cx="-3.3453959"
     inkscape:cy="16.452659"
     inkscape:document-units="mm"
     inkscape:current-layer="svg8"
     showgrid="true"
     units="px"
     inkscape:showpageshadow="false"
     inkscape:snap-grids="true"
     borderlayer="true"
     inkscape:snap-to-guides="false"
     inkscape:pagecheckerboard="true"
     inkscape:window-width="1920"
     inkscape:window-height="1138"
     inkscape:window-x="0"
     inkscape:window-y="0"
     inkscape:window-maximized="1"
     inkscape:document-rotation="0"
     inkscape:snap-others="false">
    <inkscape:grid
       type="xygrid"
       id="grid3680"
       spacingx="0.52916667"
       spacingy="0.52916667"
       dotted="false"
       empspacing="0" />
  </sodipodi:namedview>
  <metadata
     id="metadata5">
    <rdf:RDF>
      <cc:Work
         rdf:about="">
        <dc:format>image/svg+xml</dc:format>
        <dc:type
           rdf:resource="http://purl.org/dc/dcmitype/StillImage" />
        <dc:title />
      </cc:Work>
    </rdf:RDF>
  </metadata>
  <rect
     inkscape:label="background"
     y="-2.1166666"
     x="-2.1166666"
     height="12.7"
     width="12.7"
     id="rect2570"
     style="color:#000000;clip-rule:nonzero;display:inline;overflow:visible;visibility:visible;opacity:1;isolation:auto;mix-blend-mode:normal;color-interpolation:sRGB;color-interpolation-filters:linearRGB;solid-color:#000000;solid-opacity:1;fill:url(#radialGradient836);fill-opacity:1;fill-rule:nonzero;stroke:none;stroke-width:0.26458332;stroke-linecap:butt;stroke-linejoin:miter;stroke-miterlimit:4;stroke-dasharray:none;stroke-dashoffset:0;stroke-opacity:1;color-rendering:auto;image-rendering:auto;shape-rendering:auto;text-rendering:auto;enable-background:accumulate"
     inkscape:export-xdpi="2048"
     inkscape:export-ydpi="2048" />
  <path
     d="m -3.1749998,-4.2333331 0,16.9333321 m 2.1166667,-16.9333321 0,16.9333321 m 2.1166667,-16.9333321 0,16.9333321 m 2.1166666,-16.9333321 0,16.9333321 m 2.1166667,-16.9333321 0,16.9333321 m 2.1166667,-16.9333321 0,16.9333321 m 2.1166667,-16.9333321 0,16.9333321 m 2.1166667,-16.9333321 0,16.9333321 m -14.8166668,-15.8749988 16.9333328,0 m -16.9333328,2.1166667 16.9333328,0 m -16.9333328,2.1166667 16.9333328,0 m -16.9333328,2.1166666 16.9333328,0 m -16.9333328,2.1166667 16.9333328,0 m -16.9333328,2.1166667 16.9333328,0 m -16.9333328,2.1166667 16.9333328,0 m -16.9333328,2.1166667 16.9333328,0"
     style="fill:none;stroke:#ffffff;stroke-width:0.05291667;stroke-opacity:1;opacity:0.2;stroke-miterlimit:4;stroke-dasharray:none"
     id="path38"
     inkscape:label="small grid" />
  <rect
     style="color:#000000;clip-rule:nonzero;display:none;overflow:visible;visibility:visible;opacity:1;isolation:auto;mix-blend-mode:normal;color-interpolation:sRGB;color-interpolation-filters:linearRGB;solid-color:#000000;solid-opacity:1;fill:#040000;fill-opacity:0.38183043;fill-rule:nonzero;stroke:none;stroke-width:0.26458332;stroke-linecap:butt;stroke-linejoin:miter;stroke-miterlimit:4;stroke-dasharray:none;stroke-dashoffset:0;stroke-opacity:1;color-rendering:auto;image-rendering:auto;shape-rendering:auto;text-rendering:auto;enable-background:accumulate"
     id="rect2322"
     width="16.933332"
     height="16.933332"
     x="-4.2333331"
     y="-4.2333331"
     inkscape:label="helper" />
  <g
     id="layer2"
     inkscape:label="letter">
    <path
       id="path4534"
       style="display:inline;opacity:0.5;fill:url(#pattern2548);fill-opacity:1;fill-rule:evenodd;stroke:none;stroke-width:0.26458332px;stroke-linecap:butt;stroke-linejoin:miter;stroke-opacity:1"
       d="M 8.4666666,-5.3333334e-8 V 8.4666666 L 7.9375,8.4666667 V 7.9375 c 0,0 -0.3780499,-0.014396 -0.767838,-0.5577364 L 4.4291869,3.2814535 6.626469,1.0960572 c 0,0 0.4865706,-0.56689048 1.311031,-0.56689048 V 5.3333336e-8 Z M 0,8.4666666 V -5.3333334e-8 L 0.52916667,0 v 0.52916672 c 0,0 0.52916663,-3e-8 0.52916663,0.52916668 v 6.3499999 c 0,0 0,0.5291667 -0.52916663,0.5291667 v 0.5291667 z m 2.6458334,10e-8 V 7.9375 c 0,0 -0.5291667,0 -0.5291667,-0.5291667 V 5.2916667 L 3.6261353,3.9310262 5.9060996,7.3447714 c 0,0 0.4013779,0.5809168 -0.6144329,0.5927286 V 8.4666667 Z M 5.2916667,5.3333336e-8 V 0.52916672 C 5.9098154,0.54412838 5.1381136,1.270945 5.1381136,1.270945 L 2.1284785,4.0207218 2.1166667,1.0583334 c 0,0 10e-8,-0.52916668 0.5291667,-0.52916668 V 5.3333336e-8 Z"
       inkscape:connector-curvature="0"
       inkscape:label="letter inverted hatching" />
    <path
       inkscape:label="letter inverted outline"
       inkscape:connector-curvature="0"
       d="M 8.4666666,-5.3333334e-8 V 8.4666666 L 7.9375,8.4666667 V 7.9375 c 0,0 -0.3780499,-0.014396 -0.767838,-0.5577364 L 4.4291869,3.2814535 6.626469,1.0960572 c 0,0 0.4865706,-0.56689048 1.311031,-0.56689048 V 5.3333336e-8 Z M 0,8.4666666 V -5.3333334e-8 L 0.52916667,0 v 0.52916672 c 0,0 0.52916663,-3e-8 0.52916663,0.52916668 v 6.3499999 c 0,0 0,0.5291667 -0.52916663,0.5291667 v 0.5291667 z m 2.6458334,10e-8 V 7.9375 c 0,0 -0.5291667,0 -0.5291667,-0.5291667 V 5.2916667 L 3.6261353,3.9310262 5.9060996,7.3447714 c 0,0 0.4013779,0.5809168 -0.6144329,0.5927286 V 8.4666667 Z M 5.2916667,5.3333336e-8 V 0.52916672 C 5.9098154,0.54412838 5.1381136,1.270945 5.1381136,1.270945 L 2.1284785,4.0207218 2.1166667,1.0583334 c 0,0 10e-8,-0.52916668 0.5291667,-0.52916668 V 5.3333336e-8 Z"
       style="display:inline;fill:none;fill-opacity:0;fill-rule:evenodd;stroke:#ffffff;stroke-width:0.15874998;stroke-linecap:round;stroke-linejoin:miter;stroke-miterlimit:4;stroke-dasharray:none;stroke-dashoffset:0;stroke-opacity:1;paint-order:normal"
       id="path824" />
    <path
       style="display:none;fill:#020202;fill-opacity:1;fill-rule:evenodd;stroke:none;stroke-width:0.26458332;stroke-linecap:butt;stroke-linejoin:miter;stroke-miterlimit:4;stroke-dasharray:none;stroke-opacity:1"
       d="m 0.52916667,0 v 0.52916672 c 0,0 0.52916663,-3e-8 0.52916663,0.52916668 v 6.3499999 c 0,0 0,0.5291667 -0.52916663,0.5291667 V 8.4666667 H 2.6458334 V 7.9375 c 0,0 -0.5291667,0 -0.5291667,-0.5291667 V 5.2916667 L 3.6261353,3.9310262 5.9060996,7.3447714 c 0,0 0.4013779,0.5809168 -0.6144329,0.5927286 V 8.4666667 H 7.9375 V 7.9375 c 0,0 -0.3780499,-0.014396 -0.767838,-0.5577364 L 4.4291869,3.2814535 6.626469,1.0960572 c 0,0 0.4865706,-0.56689048 1.311031,-0.56689048 V 5.3333335e-8 H 5.2916667 V 0.52916672 C 5.9098154,0.54412838 5.1381136,1.270945 5.1381136,1.270945 L 2.1284785,4.0207218 2.1166667,1.0583334 c 0,0 10e-8,-0.52916668 0.5291667,-0.52916668 V 5.3333335e-8 Z"
       id="path4499-5"
       inkscape:connector-curvature="0"
       sodipodi:nodetypes="ccccccccccccccccccccccccccccc"
       inkscape:label="letter" />
  </g>
</svg>
