<?xml version="1.0" encoding="UTF-8" standalone="no"?>
<!-- Created with Inkscape (http://www.inkscape.org/) -->

<svg
   xmlns:dc="http://purl.org/dc/elements/1.1/"
   xmlns:cc="http://creativecommons.org/ns#"
   xmlns:rdf="http://www.w3.org/1999/02/22-rdf-syntax-ns#"
   xmlns:svg="http://www.w3.org/2000/svg"
   xmlns="http://www.w3.org/2000/svg"
   xmlns:xlink="http://www.w3.org/1999/xlink"
   xmlns:sodipodi="http://sodipodi.sourceforge.net/DTD/sodipodi-0.dtd"
   xmlns:inkscape="http://www.inkscape.org/namespaces/inkscape"
   width="32"
   height="32"
   viewBox="0 0 8.4666667 8.4666667"
   version="1.1"
   id="svg8"
   inkscape:version="0.92+devel (474fa8bbdb, 2017-11-10, custom)"
   sodipodi:docname="icon3.svg"
   inkscape:export-filename="/home/henry/Projects/konstrukt/icon2.png"
   inkscape:export-xdpi="3072"
   inkscape:export-ydpi="3072">
  <defs
     id="defs2">
    <linearGradient
       inkscape:collect="always"
       id="linearGradient834">
      <stop
         style="stop-color:#3d3841;stop-opacity:1"
         offset="0"
         id="stop830" />
      <stop
         style="stop-color:#160a1e;stop-opacity:1"
         offset="1"
         id="stop832" />
    </linearGradient>
    <pattern
       inkscape:collect="always"
       xlink:href="#Strips1_5white"
       id="pattern2548"
       patternTransform="matrix(0.18350974,0.08656921,-5.414965,11.478661,0,0)" />
    <pattern
       inkscape:stockid="Stripes 1:5 white"
       id="Strips1_5white"
       patternTransform="translate(0,0) scale(10,10)"
       height="1"
       width="6"
       patternUnits="userSpaceOnUse"
       inkscape:collect="always">
      <rect
         id="rect1801"
         height="2"
         width="1"
         y="-0.5"
         x="0"
         style="fill:white;stroke:none" />
    </pattern>
    <radialGradient
       inkscape:collect="always"
       xlink:href="#linearGradient834"
       id="radialGradient836"
       cx="4.2333333"
       cy="4.2333333"
       fx="4.2333333"
       fy="4.2333333"
       r="6.3499999"
       gradientUnits="userSpaceOnUse" />
  </defs>
  <sodipodi:namedview
     id="base"
     pagecolor="#ffffff"
     bordercolor="#666666"
     borderopacity="1.0"
     inkscape:pageopacity="0.0"
     inkscape:pageshadow="2"
     inkscape:zoom="13.962879"
     inkscape:cx="5.0368779"
     inkscape:cy="16.452659"
     inkscape:document-units="mm"
     inkscape:current-layer="svg8"
     showgrid="true"
     units="px"
     inkscape:showpageshadow="false"
     inkscape:snap-grids="true"
     borderlayer="true"
     inkscape:snap-to-guides="false"
     inkscape:pagecheckerboard="true"
     inkscape:window-width="1920"
     inkscape:window-height="1138"
     inkscape:window-x="0"
     inkscape:window-y="0"
     inkscape:window-maximized="1"
     inkscape:document-rotation="0"
     inkscape:snap-others="false">
    <inkscape:grid
       type="xygrid"
       id="grid3680"
       spacingx="0.52916667"
       spacingy="0.52916667"
       dotted="false"
       empspacing="0" />
  </sodipodi:namedview>
  <metadata
     id="metadata5">
    <rdf:RDF>
      <cc:Work
         rdf:about="">
        <dc:format>image/svg+xml</dc:format>
        <dc:type
           rdf:resource="http://purl.org/dc/dcmitype/StillImage" />
        <dc:title />
      </cc:Work>
    </rdf:RDF>
  </metadata>
  <rect
     inkscape:label="background"
     y="-2.1166666"
     x="-2.1166666"
     height="12.7"
     width="12.7"
     id="rect2570"
     style="color:#000000;clip-rule:nonzero;display:inline;overflow:visible;visibility:visible;opacity:1;isolation:auto;mix-blend-mode:normal;color-interpolation:sRGB;color-interpolation-filters:linearRGB;solid-color:#000000;solid-opacity:1;fill:url(#radialGradient836);fill-opacity:1;fill-rule:nonzero;stroke:none;stroke-width:0.26458332;stroke-linecap:butt;stroke-linejoin:miter;stroke-miterlimit:4;stroke-dasharray:none;stroke-dashoffset:0;stroke-opacity:1;color-rendering:auto;image-rendering:auto;shape-rendering:auto;text-rendering:auto;enable-background:accumulate"
     inkscape:export-xdpi="2048"
     inkscape:export-ydpi="2048" />
  <path
     d="M -3.1749998,-4.2333331 V 12.699999 M -1.0583331,-4.2333331 V 12.699999 M 1.0583336,-4.2333331 V 12.699999 M 3.1750002,-4.2333331 V 12.699999 M 5.2916669,-4.2333331 V 12.699999 M 7.4083336,-4.2333331 V 12.699999 M 9.5250003,-4.2333331 V 12.699999 M 11.641667,-4.2333331 V 12.699999 M -3.1749998,-3.1749998 H 13.758333 M -3.1749998,-1.0583331 H 13.758333 M -3.1749998,1.0583336 H 13.758333 M -3.1749998,3.1750002 H 13.758333 M -3.1749998,5.2916669 H 13.758333 M -3.1749998,7.4083336 H 13.758333 M -3.1749998,9.5250003 H 13.758333 M -3.1749998,11.641667 H 13.758333"
     style="display:inline;opacity:0.2;fill:none;stroke:#ffffff;stroke-width:0.05291667;stroke-miterlimit:4;stroke-dasharray:none;stroke-opacity:1"
     id="path38"
     inkscape:label="small grid"
     inkscape:connector-curvature="0" />
  <g
     id="layer2"
     inkscape:label="letter">
    <path
       style="display:inline;opacity:0.5;fill:url(#pattern2548);fill-opacity:1;fill-rule:evenodd;stroke:none;stroke-width:0.99999994px;stroke-linecap:butt;stroke-linejoin:miter;stroke-opacity:1"
       d="M 10,0 V 2 C 8.0000003,2 8,4 8,4 L 8.0449219,15.197266 19.419922,4.8027344 C 19.419922,4.8027344 22.33631,2.056548 20,2 V 0 Z M 2,2 C 1.9025843,2 1.8138937,2.0201281 1.71875,2.0253906 A 19.999999,19.999999 0 0 0 -4,16 19.999999,19.999999 0 0 0 1.6875,29.964844 C 1.7920541,29.974673 1.8932968,30 2,30 3.9999999,30 4,28 4,28 V 4 C 4,1.9999998 2,2 2,2 Z M 30,2 C 26.883929,2 25.044922,4.1425781 25.044922,4.1425781 L 16.740234,12.402344 27.097656,27.892578 C 28.570871,29.946148 30,30 30,30 c 0.09679,0 0.186332,-0.0202 0.28125,-0.02539 A 19.999999,19.999999 0 0 0 36,16 19.999999,19.999999 0 0 0 30.304688,2.0273438 C 30.202033,2.0212516 30.104853,2 30,2 Z M 13.705078,14.857422 8,20 v 8 c 0,2 2,2 2,2 v 2 h 10 v -2 c 3.839285,-0.04464 2.322266,-2.240234 2.322266,-2.240234 z"
       transform="scale(0.26458333)"
       id="path4534"
       inkscape:connector-curvature="0"
       inkscape:label="letter inverted" />
    <path
       inkscape:label="letter inverted outline"
       inkscape:connector-curvature="0"
       id="path1574"
       transform="scale(0.26458333)"
       d="M 10,0 V 2 C 8.0000003,2 8,4 8,4 L 8.0449219,15.197266 19.419922,4.8027344 C 19.419922,4.8027344 22.33631,2.056548 20,2 V 0 Z M 2,2 C 1.9025843,2 1.8138937,2.0201281 1.71875,2.0253906 A 19.999999,19.999999 0 0 0 -4,16 19.999999,19.999999 0 0 0 1.6875,29.964844 C 1.7920541,29.974673 1.8932968,30 2,30 3.9999999,30 4,28 4,28 V 4 C 4,1.9999998 2,2 2,2 Z M 30,2 C 26.883929,2 25.044922,4.1425781 25.044922,4.1425781 L 16.740234,12.402344 27.097656,27.892578 C 28.570871,29.946148 30,30 30,30 c 0.09679,0 0.186332,-0.0202 0.28125,-0.02539 A 19.999999,19.999999 0 0 0 36,16 19.999999,19.999999 0 0 0 30.304688,2.0273438 C 30.202033,2.0212516 30.104853,2 30,2 Z M 13.705078,14.857422 8,20 v 8 c 0,2 2,2 2,2 v 2 h 10 v -2 c 3.839285,-0.04464 2.322266,-2.240234 2.322266,-2.240234 z"
       style="display:inline;opacity:1;fill:none;fill-opacity:1;fill-rule:evenodd;stroke:#ffffff;stroke-width:0.60094488;stroke-linecap:butt;stroke-linejoin:miter;stroke-miterlimit:4;stroke-dasharray:none;stroke-opacity:1" />
  </g>
</svg>
