ply
format ascii 1.0
comment Created by Blender 2.66 (sub 1) - www.blender.org, source file: 'Base.blend'
element vertex 28
property float x
property float y
property float z
property float nx
property float ny
property float nz
property float s
property float t
element face 12
property list uchar uint vertex_indices
end_header
0.500000 0.500000 0.000000 0.000000 0.000000 -1.000000 0.308594 0.441406
0.500000 -0.500000 0.000000 0.000000 0.000000 -1.000000 0.308594 0.679688
-0.500000 -0.500000 0.000000 0.000000 0.000000 -1.000000 0.070312 0.679688
0.500000 0.500000 2.000000 -0.000000 0.000000 1.000000 0.347656 0.445312
-0.500000 0.500000 2.000000 -0.000000 0.000000 1.000000 0.582031 0.445312
-0.500000 -0.500000 2.000000 -0.000000 0.000000 1.000000 0.582031 0.683594
0.500000 0.500000 0.000000 1.000000 0.000000 -0.000000 0.625000 0.750000
0.500000 0.500000 2.000000 1.000000 0.000000 -0.000000 0.625000 1.000000
0.500000 -0.500000 0.000000 1.000000 0.000000 -0.000000 0.500000 0.750000
0.500000 -0.500000 0.000000 -0.000001 -1.000000 -0.000000 0.500000 0.750000
0.500000 -0.500000 2.000000 -0.000001 -1.000000 -0.000000 0.500000 1.000000
-0.500000 -0.500000 2.000000 -0.000001 -1.000000 -0.000000 0.375000 1.000000
-0.500000 -0.500000 0.000000 -1.000000 0.000000 -0.000000 0.250000 0.750000
-0.500000 -0.500000 2.000000 -1.000000 0.000000 -0.000000 0.250000 1.000000
-0.500000 0.500000 2.000000 -1.000000 0.000000 -0.000000 0.125000 1.000000
0.500000 0.500000 2.000000 0.000000 1.000000 0.000000 0.000000 1.000000
0.500000 0.500000 0.000000 0.000000 1.000000 0.000000 0.000000 0.750000
-0.500000 0.500000 2.000000 0.000000 1.000000 0.000000 0.125000 1.000000
-0.500000 0.500000 0.000000 0.000000 0.000000 -1.000000 0.070312 0.441406
0.500000 -0.500000 2.000000 -0.000000 0.000000 1.000000 0.343750 0.683594
-0.500000 0.500000 0.000000 0.000000 1.000000 0.000000 0.125000 0.750000
-0.500000 -0.500000 0.000000 -0.000000 -1.000000 0.000000 0.375000 0.750000
0.500000 -0.500000 0.000000 -0.000000 -1.000000 0.000000 0.500000 0.750000
-0.500000 -0.500000 2.000000 -0.000000 -1.000000 0.000000 0.375000 1.000000
-0.500000 0.500000 0.000000 -1.000000 0.000000 -0.000000 0.125000 0.750000
0.500000 0.500000 2.000000 1.000000 -0.000001 0.000000 0.625000 1.000000
0.500000 -0.500000 2.000000 1.000000 -0.000001 0.000000 0.500000 1.000000
0.500000 -0.500000 0.000000 1.000000 -0.000001 0.000000 0.500000 0.750000
3 0 1 2
3 3 4 5
3 6 7 8
3 9 10 11
3 12 13 14
3 15 16 17
3 18 0 2
3 19 3 5
3 16 20 17
3 21 22 23
3 24 12 14
3 25 26 27
