ply
format ascii 1.0
comment Created by Blender 2.66 (sub 1) - www.blender.org, source file: 'Base.blend'
element vertex 4
property float x
property float y
property float z
property float nx
property float ny
property float nz
element face 1
property list uchar uint vertex_indices
end_header
0.500000 0.500000 0.000000 1.000000 -0.000000 0.000000
0.500000 0.500000 2.000000 1.000000 -0.000000 0.000000
0.500000 -0.500000 2.000000 1.000000 -0.000000 0.000000
0.500000 -0.500000 0.000000 1.000000 -0.000000 0.000000
4 0 1 2 3
